<svg version="1.2" xmlns="http://www.w3.org/2000/svg" viewBox="0 0 900 256" width="900" height="256"><style>.a{fill:#ffa400}.b{fill:#fff}.c{fill:#f00}.d{fill:#004093}</style><path class="a" d="m127.5 255.5c-70.5 0-127.5-57-127.5-127.5 0-70.5 57-127.5 127.5-127.5 70.5 0 127.5 57 127.5 127.5 0 70.5-57 127.5-127.5 127.5z"/><path class="b" d="m171.5 175.1h-0.8l-75.7-119.6h-21.9v143.5h16.7v-120.3h0.8l76.5 120.3h21.1v-143.5h-16.7zm-5.3 0h-0.8l-75.7-119.5h-21.9v143.5h16.7v-120.4h0.8l76.5 120.4h21.1v-143.5h-16.7z"/><path class="c" d="m449.5 255.5c-70.5 0-127.5-57-127.5-127.5 0-70.5 57-127.5 127.5-127.5 70.5 0 127.5 57 127.5 127.5 0 70.5-57 127.5-127.5 127.5z"/><path class="b" d="m461.2 199v-143.5h-17.1v143.5zm-5.3 0v-143.5h-17.1v143.5z"/><path class="d" d="m772.5 255.5c-70.5 0-127.5-57-127.5-127.5 0-70.5 57-127.5 127.5-127.5 70.5 0 127.5 57 127.5 127.5 0 70.5-57 127.5-127.5 127.5z"/><path class="b" d="m792 185.9c-29.4 0-52.8-20.1-52.8-56.7 0-36.7 20-60.6 52.1-60.6 12.9 0 23.4 3 31.8 6.4l5.7-14.7c-9.5-4-22-7.2-37.5-7.2-39.8 0-69.8 26.8-69.8 76.1 0 44.6 27.8 72.2 70.7 72.2 16.5 0 30.5-4.2 39.6-8.6l-5-14.9c-7.9 3.8-21.2 8-34.8 8zm-5.4 0c-29.3 0-52.7-20.1-52.7-56.7 0-36.7 19.9-60.6 52.1-60.6 12.9 0 23.4 3 31.8 6.4l5.7-14.7c-9.5-4-22-7.2-37.5-7.2-39.8 0-69.8 26.8-69.8 76.1 0 44.6 27.8 72.2 70.6 72.2 16.6 0 30.6-4.2 39.7-8.6l-5-14.9c-7.9 3.8-21.2 8-34.9 8z"/></svg>