
<svg width="227" height="93" viewBox="0 0 227 93" fill="none" xmlns="http://www.w3.org/2000/svg">
<rect width="227" height="93" fill="none"/>
<path d="M207.807 71.1372H202.045V92.5176H207.807V71.1372Z" fill="#29458F"/>
<path d="M212.279 71.1372V92.5176H226.774V87.5921H218.198V71.1372H212.279Z" fill="#29458F"/>
<path d="M175.793 42.8994H164.291V47.5582H173.962V53.6393H164.291V58.2536H175.793V64.8079H156.5V36.3425H175.793V42.8994Z" fill="#29458F"/>
<path d="M167.634 7.58436H155.303V12.3608H165.668V18.5987H155.303V23.3308H167.634V30.0523H146.949V0.862793H167.634V7.58436Z" fill="#29458F"/>
<path d="M193.107 45.5086C193.107 44.6982 192.752 43.9583 192.049 43.289C191.344 42.6223 190.467 42.2877 189.425 42.2877C188.493 42.2877 187.759 42.4838 187.224 42.8733C186.687 43.2655 186.419 43.7805 186.419 44.4184C186.419 45.0563 186.714 45.5949 187.309 46.0289C187.898 46.4655 188.951 46.9073 190.462 47.357C191.973 47.8066 192.939 48.1047 193.362 48.2485C195.731 49.0589 197.476 50.1544 198.59 51.5321C199.706 52.9099 200.261 54.672 200.261 56.8184C200.261 58.5596 199.8 60.0524 198.887 61.2995C197.968 62.5465 196.7 63.5034 195.076 64.1727C193.454 64.8393 191.444 65.174 189.043 65.174C186.869 65.174 184.727 64.7975 182.608 64.0419C180.492 63.2864 178.586 62.157 176.894 60.6485L181.423 54.991C182.044 55.6001 182.863 56.2328 183.879 56.8838C184.895 57.5374 185.89 58.0236 186.861 58.3426C187.835 58.6616 188.675 58.821 189.38 58.821C190.425 58.821 191.18 58.6746 191.644 58.3844C192.109 58.0942 192.344 57.6602 192.344 57.0798C192.344 56.6171 192.109 56.1727 191.644 55.7544C191.178 55.3334 190.027 54.855 188.193 54.3191C186.358 53.7831 184.927 53.289 183.897 52.8393C182.866 52.3897 181.979 51.8459 181.231 51.208C180.484 50.57 179.913 49.8799 179.515 49.1426C179.12 48.4001 178.86 47.6838 178.733 46.9883C178.607 46.2929 178.544 45.6393 178.544 45.0302C178.544 43.4929 178.973 41.9766 179.834 40.4838C180.697 38.991 181.979 37.8302 183.687 37.004C185.395 36.1779 187.222 35.7622 189.169 35.7622C192.133 35.7622 194.573 36.4367 196.492 37.7857C198.411 39.1348 199.595 41.1295 200.048 43.77L193.104 45.5112L193.107 45.5086Z" fill="#29458F"/>
<path d="M210.763 53.838H216.161L214.319 46.9805C213.929 45.4563 213.677 44.306 213.566 43.5295H213.398C213.342 43.9896 213.076 45.1557 212.603 47.0223L210.76 53.8354L210.763 53.838ZM219.088 64.8367L217.709 59.6184H209.215L207.794 64.8367H199.8L209.089 36.3713H217.793L227 64.8367H219.091H219.088Z" fill="#29458F"/>
<path d="M135.963 10.0627C135.963 9.22611 135.584 8.46271 134.828 7.77252C134.073 7.08493 133.133 6.73984 132.017 6.73984C131.02 6.73984 130.23 6.94114 129.656 7.34637C129.082 7.7516 128.796 8.28232 128.796 8.94114C128.796 9.59997 129.111 10.1516 129.748 10.6013C130.383 11.0509 131.509 11.5085 133.125 11.9712C134.741 12.4366 135.778 12.7424 136.234 12.8915C138.774 13.7307 140.64 14.8601 141.835 16.2823C143.03 17.7019 143.624 19.5215 143.624 21.7359C143.624 23.532 143.132 25.0745 142.151 26.3607C141.169 27.647 139.808 28.6353 138.071 29.3228C136.331 30.0104 134.178 30.3555 131.609 30.3555C129.282 30.3555 126.982 29.966 124.716 29.1869C122.45 28.4104 120.41 27.2418 118.596 25.6862L123.447 19.8509C124.113 20.4784 124.99 21.1294 126.079 21.8039C127.166 22.4758 128.232 22.9777 129.277 23.3071C130.319 23.6366 131.217 23.8013 131.975 23.8013C133.094 23.8013 133.902 23.6522 134.399 23.3516C134.899 23.0536 135.149 22.6039 135.149 22.0052C135.149 21.5294 134.899 21.0692 134.399 20.6353C133.902 20.2039 132.67 19.7098 130.704 19.1555C128.74 18.6039 127.203 18.0941 126.103 17.6313C125 17.166 124.045 16.6065 123.245 15.9451C122.442 15.2889 121.831 14.5751 121.407 13.8143C120.984 13.0509 120.705 12.3085 120.568 11.5921C120.433 10.8732 120.365 10.2013 120.365 9.57121C120.365 7.98689 120.826 6.4235 121.75 4.88101C122.671 3.34114 124.045 2.14376 125.877 1.28886C127.703 0.433956 129.659 0.0078125 131.746 0.0078125C134.92 0.0078125 137.534 0.703237 139.59 2.09409C141.645 3.48494 142.914 5.54507 143.398 8.26663L135.963 10.0627Z" fill="#29458F"/>
<path d="M151.852 36.3425V64.8576H144.232V52.068C144.232 51.4929 144.253 50.8576 144.296 50.1674C144.338 49.4772 144.385 49.0589 144.44 48.9151L144.232 48.8288C144.203 48.9726 144.109 49.2889 143.943 49.7804C143.777 50.2693 143.638 50.6719 143.527 50.9909L138.144 65.1164H134.252L128.785 50.9909C128.674 50.6746 128.535 50.2693 128.369 49.7804C128.203 49.2889 128.106 48.9752 128.079 48.8288L127.874 48.9151C127.927 49.0589 127.977 49.485 128.016 50.1909C128.058 50.8968 128.079 51.5242 128.079 52.0706V64.8602H120.541V36.3451H128.743L133.962 48.0968C134.457 49.2183 134.949 50.4157 135.433 51.6837C135.915 52.9491 136.184 53.7438 136.239 54.0576H136.405C136.434 53.77 136.681 53.0013 137.152 51.7464C137.621 50.4942 138.118 49.2628 138.642 48.0549L143.693 36.3451H151.852V36.3425Z" fill="#29458F"/>
<path d="M188.027 10.0627C188.027 9.22611 187.648 8.46271 186.893 7.77252C186.137 7.08493 185.198 6.73984 184.082 6.73984C183.084 6.73984 182.297 6.94114 181.723 7.34637C181.15 7.7516 180.863 8.28232 180.863 8.94114C180.863 9.59997 181.179 10.1516 181.816 10.6013C182.45 11.0509 183.576 11.5085 185.192 11.9712C186.809 12.4366 187.846 12.7424 188.301 12.8915C190.841 13.7307 192.707 14.8601 193.899 16.2823C195.094 17.7019 195.692 19.5215 195.692 21.7359C195.692 23.532 195.2 25.0745 194.218 26.3607C193.236 27.647 191.875 28.6353 190.138 29.3228C188.398 30.0104 186.245 30.3555 183.676 30.3555C181.347 30.3555 179.049 29.966 176.783 29.1869C174.517 28.4104 172.474 27.2418 170.664 25.6862L175.514 19.8509C176.18 20.4784 177.057 21.1294 178.146 21.8039C179.234 22.4758 180.3 22.9777 181.342 23.3071C182.384 23.6366 183.284 23.8013 184.04 23.8013C185.158 23.8013 185.966 23.6522 186.464 23.3516C186.964 23.0536 187.211 22.6039 187.211 22.0052C187.211 21.5294 186.961 21.0692 186.464 20.6353C185.966 20.2039 184.732 19.7098 182.768 19.1555C180.802 18.6039 179.268 18.0941 178.168 17.6313C177.065 17.166 176.109 16.6065 175.309 15.9451C174.506 15.2889 173.896 14.5751 173.472 13.8143C173.048 13.0509 172.769 12.3085 172.632 11.5921C172.498 10.8732 172.43 10.2013 172.43 9.57121C172.43 7.98689 172.89 6.4235 173.814 4.88101C174.735 3.34114 176.109 2.14376 177.941 1.28886C179.768 0.433956 181.723 0.0078125 183.811 0.0078125C186.985 0.0078125 189.599 0.703237 191.654 2.09409C193.71 3.48494 194.978 5.54507 195.463 8.26663L188.027 10.0627Z" fill="#29458F"/>
<path d="M213.169 0.00784313C214.861 0.00784313 216.509 0.240523 218.112 0.703268C219.715 1.16601 221.112 1.92941 222.307 2.99346C223.502 4.0549 224.447 5.34902 225.142 6.87581C225.837 8.4 226.184 10.0941 226.184 11.9477L218.385 13.1163C218.385 12.4575 218.272 11.715 218.046 10.8915C217.819 10.0706 217.448 9.37516 216.935 8.80523C216.419 8.23791 215.853 7.83268 215.235 7.59477C214.614 7.35425 213.971 7.23398 213.308 7.23398C211.524 7.23398 210.05 7.96078 208.886 9.41176C207.723 10.8627 207.141 12.7869 207.141 15.1817C207.141 16.5281 207.336 17.7098 207.731 18.7294C208.123 19.7464 208.652 20.5778 209.318 21.2209C209.981 21.864 210.744 22.3425 211.608 22.6562C212.471 22.9699 213.369 23.1268 214.306 23.1268C215.574 23.1268 216.724 22.8497 217.751 22.2954C218.78 21.7412 219.572 21.1738 220.13 20.5908C220.691 20.0078 221.107 19.5346 221.378 19.1765L226.366 24.3843C225.034 26.2091 223.313 27.6601 221.196 28.7372C219.08 29.8144 216.706 30.3529 214.077 30.3529C211.808 30.3529 209.707 30 207.773 29.2967C205.838 28.5961 204.191 27.5765 202.83 26.2431C201.469 24.9124 200.419 23.3046 199.679 21.417C198.937 19.532 198.569 17.451 198.569 15.1765C198.569 12.902 198.929 10.8209 199.656 8.93594C200.382 7.05098 201.393 5.44313 202.693 4.1098C203.993 2.77908 205.544 1.75948 207.341 1.05621C209.139 0.352941 211.081 0 213.169 0" fill="#29458F"/>
<path d="M129.009 88.1751C129.788 88.1751 130.401 87.9921 130.843 87.6235C131.288 87.2575 131.509 86.7163 131.509 86.0026C131.509 85.3568 131.264 84.8209 130.783 84.3999C130.296 83.979 129.675 83.7673 128.917 83.7673H126.069V88.1725H129.011L129.009 88.1751ZM130.938 77.681C130.938 77.0117 130.696 76.4758 130.211 76.0758C129.727 75.6784 129.061 75.4771 128.219 75.4771H126.066V79.7202H128.314C129.135 79.7202 129.78 79.5477 130.243 79.2026C130.709 78.8575 130.938 78.3503 130.938 77.681ZM133.28 81.5346C133.891 81.5999 134.533 81.864 135.21 82.3294C135.886 82.7921 136.434 83.3934 136.855 84.1254C137.276 84.8601 137.489 85.7359 137.489 86.7503C137.489 88.63 136.85 90.0601 135.573 91.0431C134.296 92.0235 132.52 92.515 130.24 92.515H120.304V71.1372H129.672C131.909 71.1372 133.665 71.6784 134.941 72.7581C136.218 73.8379 136.855 75.2627 136.855 77.0352C136.855 78.3529 136.518 79.3803 135.841 80.1124C135.165 80.847 134.31 81.2784 133.278 81.4091V81.5372L133.28 81.5346Z" fill="#29458F"/>
<path d="M147.025 81.7935H148.178C148.754 81.7935 149.357 81.7073 149.986 81.5321C150.618 81.3569 151.139 81.0302 151.557 80.5491C151.973 80.0681 152.181 79.4772 152.181 78.7792C152.181 78.2981 152.073 77.8014 151.863 77.2864C151.65 76.7739 151.247 76.3583 150.663 76.0419C150.076 75.7256 149.376 75.5661 148.565 75.5661H147.028V81.7935H147.025ZM159.164 87.7909L159.485 92.4785C158.885 92.6746 157.935 92.7739 156.632 92.7739C156.548 92.7739 156.398 92.7661 156.185 92.7556C155.971 92.7452 155.64 92.7112 155.192 92.6589C154.745 92.604 154.279 92.4681 153.8 92.2484C153.318 92.0315 152.918 91.7857 152.597 91.5112C152.279 91.2393 152.005 90.9543 151.781 90.6589C151.557 90.3635 151.363 90.0785 151.205 89.8066C151.044 89.5347 150.81 89.1007 150.499 88.5099C150.191 87.919 149.96 87.5164 149.81 87.2968C149.662 87.0798 149.497 86.8759 149.315 86.6903C149.133 86.5047 148.889 86.3295 148.578 86.1648C148.267 86.0027 147.867 85.919 147.375 85.919H147.022V92.5073H141.035V70.8733H148.944C151.976 70.8733 154.245 71.5112 155.75 72.7896C157.256 74.0681 158.009 76.0419 158.009 78.706C158.009 81.6785 156.737 83.7203 154.197 84.8367C154.732 85.0118 155.224 85.3883 155.671 85.9687C156.121 86.5465 156.419 86.9073 156.569 87.0484C156.719 87.1896 156.877 87.323 157.048 87.4406C157.219 87.5635 157.416 87.6602 157.643 87.736C157.867 87.8145 158.148 87.8511 158.49 87.8511L159.161 87.7857L159.164 87.7909Z" fill="#29458F"/>
<path d="M169.2 84.2562H173.285L171.893 79.1059C171.595 77.9608 171.406 77.0955 171.322 76.5151H171.195C171.153 76.8602 170.95 77.736 170.595 79.1399L169.2 84.2562ZM175.499 92.5177L174.456 88.5987H168.032L166.955 92.5177H160.909L167.937 71.1399H174.52L181.484 92.5177H175.501H175.499Z" fill="#29458F"/>
<path d="M193.283 78.06C193.283 77.443 193.015 76.8836 192.475 76.3738C191.936 75.8666 191.27 75.613 190.472 75.613C189.762 75.613 189.204 75.762 188.796 76.06C188.385 76.3581 188.182 76.7476 188.182 77.2339C188.182 77.7202 188.406 78.1254 188.859 78.4548C189.309 78.7868 190.112 79.1215 191.265 79.4613C192.415 79.8038 193.152 80.0287 193.475 80.1385C195.284 80.7555 196.613 81.5868 197.463 82.6326C198.313 83.6783 198.737 85.0169 198.737 86.6456C198.737 87.9685 198.387 89.1032 197.689 90.0496C196.989 90.996 196.021 91.7228 194.784 92.23C193.544 92.7371 192.012 92.9907 190.183 92.9907C188.527 92.9907 186.89 92.7058 185.277 92.1332C183.661 91.5607 182.208 90.7005 180.918 89.5554L184.371 85.26C184.845 85.7228 185.469 86.2012 186.243 86.6953C187.019 87.192 187.777 87.5607 188.519 87.8012C189.262 88.0443 189.901 88.1646 190.438 88.1646C191.236 88.1646 191.812 88.0548 192.165 87.8326C192.52 87.613 192.699 87.2836 192.699 86.8417C192.699 86.4888 192.52 86.1541 192.165 85.8326C191.809 85.5162 190.933 85.1502 189.533 84.7424C188.132 84.3345 187.043 83.9607 186.258 83.6182C185.471 83.2783 184.792 82.8653 184.224 82.379C183.653 81.8953 183.218 81.3724 182.916 80.8104C182.616 80.2483 182.416 79.7045 182.321 79.1764C182.223 78.6483 182.176 78.1515 182.176 77.6888C182.176 76.5228 182.505 75.3698 183.16 74.2352C183.816 73.1006 184.795 72.2195 186.098 71.5921C187.401 70.9646 188.796 70.6509 190.278 70.6509C192.536 70.6509 194.399 71.1633 195.863 72.1855C197.326 73.2104 198.229 74.7241 198.574 76.7293L193.278 78.0496L193.283 78.06Z" fill="#29458F"/>
<path d="M85.1798 52.0654V65.7961L79.9709 53.0641L77.6074 54.0105L82.9241 67.0066L72.8907 57.0929L71.0904 58.8759L80.7263 68.3948L68.2609 62.9543L67.2292 65.2602L80.4157 71.0171H66V73.5347H79.8999L67.0133 78.6798L67.9688 81.0171L81.1211 75.7648L71.0904 85.6759L72.8907 87.4563L82.5293 77.9321L77.023 90.251L79.355 91.2706L85.1798 78.2432V92.4863H87.7302V78.7556L92.9391 91.4824L95.3026 90.5412L89.9859 77.5452L100.017 87.4563L101.822 85.6759L92.1837 76.1517L104.652 81.5948L105.681 79.289L92.4942 73.5347H106.91V71.0171H93.0101L105.897 65.8693L104.941 63.5321L91.7888 68.7844L101.822 58.8759L100.017 57.0929L90.3807 66.6171L95.8869 54.2955L93.555 53.2785L87.7302 66.3086V52.0654H85.1798Z" fill="#25BAEC"/>
<path d="M89.9673 9.19478C94.0286 8.68759 97.1713 5.24184 97.1713 1.05884H93.7207C89.8989 1.05884 86.6931 3.65753 85.764 7.17648C84.8348 3.66014 81.629 1.05884 77.8073 1.05884H74.3566C74.3566 4.97518 77.1124 8.24838 80.7973 9.06406C71.1824 10.8941 63.9521 18.7686 63.9521 28.2092C63.9521 39.0039 73.4091 47.7516 85.077 47.7516C96.7449 47.7516 106.199 39.0013 106.199 28.2092C106.199 18.9726 99.2716 11.2366 89.9647 9.19478" fill="#F5C92E"/>
<path d="M51.929 37.5061C50.9604 37.5061 50.0208 37.6185 49.1206 37.8224C49.3364 36.9701 49.4549 36.0786 49.4549 35.1636C49.4549 28.8786 44.0697 23.7832 37.429 23.7832C30.7884 23.7832 25.4032 28.8786 25.4032 35.1636V60.2642H51.9316C58.5749 60.2642 63.9575 55.1688 63.9575 48.8838C63.9575 42.5989 58.5723 37.5035 51.9316 37.5035" fill="#29458F"/>
<path d="M11.9219 29.9373C11.6534 30.1988 11.2534 30.3792 10.8849 30.4393C10.3137 30.5308 9.67677 30.3269 9.27934 29.9713C8.15018 29.0694 6.71309 28.6014 5.18386 28.7818C2.38599 29.1086 0.1777 31.6236 0.011881 34.6641C-0.0697126 36.1805 0.338255 37.5792 1.07523 38.7033C1.10681 38.7504 1.13577 38.7948 1.16735 38.8419C1.23578 38.9412 1.30948 39.038 1.38055 39.1321C3.56515 42.0942 7.10263 43.9661 11.0428 43.8275C15.0014 43.689 18.4283 41.5635 20.4287 38.4341C20.5077 38.3164 20.584 38.1988 20.6551 38.0759C20.6551 38.0733 20.6603 38.068 20.663 38.0628C21.3447 36.889 21.6763 35.4589 21.5105 33.9452C21.1736 30.8707 18.7574 28.4864 15.9042 28.4001C14.3724 28.353 12.9774 28.9439 11.9193 29.9399L11.9219 29.9373Z" fill="#EF8B28"/>
<path d="M4.04674 10.3948C4.31521 10.6563 4.50208 11.0432 4.56262 11.4014C4.65737 11.953 4.44418 12.5726 4.08359 12.9569C3.15184 14.0497 2.66754 15.4432 2.85442 16.9255C3.19395 19.634 5.78652 21.7752 8.92656 21.9347C10.4926 22.0131 11.935 21.6183 13.0957 20.9046C13.1431 20.8759 13.1879 20.8471 13.2352 20.8157C13.3379 20.7478 13.4379 20.6798 13.5353 20.6092C16.5937 18.4916 18.523 15.0667 18.3809 11.2471C18.2388 7.41182 16.0436 4.08894 12.8167 2.15169C12.6957 2.07326 12.5746 2.00005 12.4482 1.93208C12.443 1.93208 12.4377 1.92685 12.4325 1.92424C11.2217 1.26541 9.74513 0.943844 8.18169 1.10332C5.00744 1.43012 2.54647 3.76999 2.45961 6.53861C2.41223 8.02358 3.02024 9.37521 4.04674 10.4001H4.04411L4.04674 10.3948Z" fill="#EF8B28"/>
<path d="M6.81308 79.1217C6.81308 79.4904 6.66042 79.893 6.44459 80.1884C6.11032 80.6433 5.50758 80.9335 4.97064 80.9597C3.51512 81.0956 2.15435 81.7492 1.20418 82.923C-0.532977 85.0721 -0.261876 88.3636 1.84113 90.625C2.88869 91.7544 4.19945 92.4655 5.5418 92.7531C5.59707 92.7636 5.65235 92.7766 5.70762 92.7845C5.82869 92.808 5.94977 92.8263 6.07084 92.842C9.77677 93.4407 13.6433 92.34 16.3306 89.5427C19.0284 86.7348 19.8996 82.8812 19.0337 79.2969C19.0047 79.161 18.9705 79.025 18.9337 78.8917C18.9337 78.8838 18.931 78.8786 18.9284 78.8734C18.5547 77.5766 17.744 76.3374 16.5227 75.3806C14.0407 73.4355 10.5927 73.4067 8.50812 75.3021C7.39213 76.3191 6.83677 77.6917 6.81571 79.1191L6.81308 79.1217Z" fill="#EF8B28"/>
<path d="M12.543 63.629C12.543 63.2603 12.6957 62.8577 12.9115 62.5623C13.2457 62.1074 13.8485 61.8172 14.3854 61.791C15.841 61.6551 17.2017 61.0015 18.1519 59.8276C19.889 57.6786 19.6179 54.3871 17.5149 52.1257C16.4674 50.9963 15.1566 50.2852 13.8143 49.9976C13.759 49.9871 13.7037 49.9741 13.6485 49.9662C13.5274 49.9427 13.4063 49.9244 13.2852 49.9087C9.5793 49.31 5.71282 50.4107 3.02549 53.208C0.327637 56.0159 -0.543572 59.8695 0.322373 63.4538C0.351326 63.5897 0.385542 63.7257 0.425023 63.859C0.425023 63.8642 0.425023 63.8721 0.427655 63.8773C0.801406 65.174 1.61208 66.4133 2.83335 67.3701C5.31538 69.3152 8.76336 69.344 10.8479 67.4486C11.9639 66.4316 12.5193 65.059 12.543 63.6316V63.629Z" fill="#EF8B28"/>
<path d="M50.3682 78.5178C57.8695 78.5178 63.9522 72.2642 63.9522 64.5518H58.2617C50.7577 64.5518 44.675 70.8053 44.675 78.5178C44.675 86.2302 50.7577 92.4838 58.2617 92.4838H63.9522C63.9522 84.7714 57.8695 78.5178 50.3682 78.5178Z" fill="#3DA846"/>
<path d="M29.2566 78.5178C36.758 78.5178 42.8406 72.2642 42.8406 64.5518H37.1501C29.6461 64.5518 23.5635 70.8053 23.5635 78.5178C23.5635 86.2302 29.6461 92.4838 37.1501 92.4838H42.8406C42.8406 84.7714 36.758 78.5178 29.2566 78.5178Z" fill="#3DA846"/>
<path d="M60.1278 0.0131836C60.1278 7.14259 54.2504 12.9413 47.0228 12.9413C39.7952 12.9413 33.9178 7.14259 33.9178 0.0131836H25.6111C25.6111 11.6602 35.2154 21.1374 47.0228 21.1374C58.8302 21.1374 68.4346 11.6602 68.4346 0.0131836H60.1278Z" fill="#CBD437"/>
</svg>
